<!--?xml version="1.0" standalone="no"?-->
              <svg id="sw-js-blob-svg" viewBox="0 0 100 100" xmlns="http://www.w3.org/2000/svg" version="1.1">
                    <defs> 
                        <linearGradient id="sw-gradient" x1="0" x2="1" y1="1" y2="0">
                            <stop id="stop1" stop-color="rgba(229, 147, 19, 1)" offset="0%"></stop>
                            <stop id="stop2" stop-color="rgba(222, 176, 18, 1)" offset="100%"></stop>
                        </linearGradient>
                    </defs>
                <path fill="url(#sw-gradient)" d="M22,-39.2C27.8,-34.7,31.3,-27.4,34.6,-20.4C37.8,-13.4,40.7,-6.7,41.1,0.2C41.6,7.2,39.5,14.4,36.1,21.1C32.6,27.8,27.9,33.9,21.7,38.5C15.4,43.1,7.7,46.2,-0.2,46.5C-8.1,46.8,-16.2,44.4,-22.1,39.6C-28,34.9,-31.7,27.7,-35.9,20.7C-40,13.7,-44.5,6.8,-45.5,-0.6C-46.4,-7.9,-43.8,-15.9,-39.4,-22.4C-35,-28.9,-28.8,-34,-21.9,-37.8C-15,-41.7,-7.5,-44.3,0.3,-44.8C8.1,-45.3,16.2,-43.6,22,-39.2Z" width="100%" height="100%" transform="translate(50 50)" stroke-width="0" style="transition: 0.3s;"></path>
              </svg>